<svg width="100" height="40" viewBox="0 0 100 40" fill="none" xmlns="http://www.w3.org/2000/svg">
<rect width="40" height="40" rx="20" fill="#2C55E7"/>
<path d="M20 6C20 6 20.7725 13.2099 23.7813 16.2187C26.7901 19.2275 34 20 34 20C34 20 26.7901 20.7725 23.7813 23.7813C20.7725 26.7901 20 34 20 34C20 34 19.2275 26.7901 16.2187 23.7813C13.2099 20.7725 6 20 6 20C6 20 13.2099 19.2275 16.2187 16.2187C19.2275 13.2099 20 6 20 6Z" fill="white"/>
<path d="M57.517 18.1648C57.4527 17.9261 57.358 17.7159 57.233 17.5341C57.108 17.3485 56.9545 17.1913 56.7727 17.0625C56.5909 16.9337 56.3826 16.8371 56.1477 16.7727C55.9129 16.7045 55.6553 16.6705 55.375 16.6705C54.8106 16.6705 54.322 16.8068 53.9091 17.0795C53.5 17.3523 53.1837 17.75 52.9602 18.2727C52.7367 18.7917 52.625 19.4223 52.625 20.1648C52.625 20.911 52.733 21.5473 52.9489 22.0739C53.1648 22.6004 53.4773 23.0019 53.8864 23.2784C54.2955 23.5549 54.7917 23.6932 55.375 23.6932C55.8902 23.6932 56.3258 23.6098 56.6818 23.4432C57.0417 23.2727 57.3144 23.0322 57.5 22.7216C57.6856 22.411 57.7784 22.0455 57.7784 21.625L58.3011 21.6875H55.4716V19.6364H60.4886V21.1761C60.4886 22.2178 60.267 23.1098 59.8239 23.8523C59.3845 24.5947 58.7784 25.1648 58.0057 25.5625C57.2367 25.9602 56.3523 26.1591 55.3523 26.1591C54.2424 26.1591 53.267 25.9186 52.4261 25.4375C51.5852 24.9564 50.9299 24.2708 50.4602 23.3807C49.9905 22.4867 49.7557 21.4261 49.7557 20.1989C49.7557 19.2443 49.8977 18.3977 50.1818 17.6591C50.4659 16.9167 50.8617 16.2879 51.3693 15.7727C51.8807 15.2576 52.4716 14.8674 53.142 14.6023C53.8163 14.3371 54.5417 14.2045 55.3182 14.2045C55.9924 14.2045 56.6193 14.3011 57.1989 14.4943C57.7822 14.6875 58.2973 14.9602 58.7443 15.3125C59.1951 15.6648 59.5606 16.0833 59.8409 16.5682C60.1212 17.053 60.2955 17.5852 60.3636 18.1648H57.517ZM73.1293 20.1818C73.1293 21.4621 72.883 22.5473 72.3906 23.4375C71.8982 24.3277 71.2315 25.0038 70.3906 25.4659C69.5535 25.928 68.6141 26.1591 67.5724 26.1591C66.527 26.1591 65.5857 25.9261 64.7486 25.4602C63.9115 24.9943 63.2467 24.3182 62.7543 23.4318C62.2656 22.5417 62.0213 21.4583 62.0213 20.1818C62.0213 18.9015 62.2656 17.8163 62.7543 16.9261C63.2467 16.036 63.9115 15.3598 64.7486 14.8977C65.5857 14.4356 66.527 14.2045 67.5724 14.2045C68.6141 14.2045 69.5535 14.4356 70.3906 14.8977C71.2315 15.3598 71.8982 16.036 72.3906 16.9261C72.883 17.8163 73.1293 18.9015 73.1293 20.1818ZM70.2543 20.1818C70.2543 19.4242 70.1463 18.7841 69.9304 18.2614C69.7183 17.7386 69.4115 17.3428 69.0099 17.0739C68.6122 16.8049 68.133 16.6705 67.5724 16.6705C67.0156 16.6705 66.5365 16.8049 66.1349 17.0739C65.7334 17.3428 65.4247 17.7386 65.2088 18.2614C64.9967 18.7841 64.8906 19.4242 64.8906 20.1818C64.8906 20.9394 64.9967 21.5795 65.2088 22.1023C65.4247 22.625 65.7334 23.0208 66.1349 23.2898C66.5365 23.5587 67.0156 23.6932 67.5724 23.6932C68.133 23.6932 68.6122 23.5587 69.0099 23.2898C69.4115 23.0208 69.7183 22.625 69.9304 22.1023C70.1463 21.5795 70.2543 20.9394 70.2543 20.1818ZM81.8111 14.3636H84.6179V21.8693C84.6179 22.7367 84.4115 23.4924 83.9986 24.1364C83.5857 24.7765 83.0099 25.2727 82.2713 25.625C81.5327 25.9735 80.6747 26.1477 79.6974 26.1477C78.7088 26.1477 77.8452 25.9735 77.1065 25.625C76.3679 25.2727 75.794 24.7765 75.3849 24.1364C74.9759 23.4924 74.7713 22.7367 74.7713 21.8693V14.3636H77.5838V21.625C77.5838 22.0265 77.6709 22.3845 77.8452 22.6989C78.0232 23.0133 78.2713 23.2595 78.5895 23.4375C78.9077 23.6155 79.277 23.7045 79.6974 23.7045C80.1179 23.7045 80.4853 23.6155 80.7997 23.4375C81.1179 23.2595 81.366 23.0133 81.544 22.6989C81.7221 22.3845 81.8111 22.0265 81.8111 21.625V14.3636ZM86.3807 26V14.3636H91.1875C92.0587 14.3636 92.8106 14.5341 93.4432 14.875C94.0795 15.2121 94.5701 15.6837 94.9148 16.2898C95.2595 16.892 95.4318 17.5928 95.4318 18.392C95.4318 19.1951 95.2557 19.8977 94.9034 20.5C94.5549 21.0985 94.0568 21.5625 93.4091 21.892C92.7614 22.2216 91.9924 22.3864 91.1023 22.3864H88.1364V20.1705H90.5795C91.0038 20.1705 91.358 20.0966 91.642 19.9489C91.9299 19.8011 92.1477 19.5947 92.2955 19.3295C92.4432 19.0606 92.517 18.7481 92.517 18.392C92.517 18.0322 92.4432 17.7216 92.2955 17.4602C92.1477 17.1951 91.9299 16.9905 91.642 16.8466C91.3542 16.7027 91 16.6307 90.5795 16.6307H89.1932V26H86.3807Z" fill="#2C55E7"/>
</svg>
